<?xml version="1.0" encoding="UTF-8"?>
<svg id="Camada_2" data-name="Camada 2" xmlns="http://www.w3.org/2000/svg" viewBox="0 0 583.14 673.35">
  <defs>
    <style>
      .cls-1, .cls-2 {
        fill: #fff;
      }

      .cls-3 {
        letter-spacing: -.05em;
      }

      .cls-2 {
        font-family: Caprasimo-Regular, Caprasimo;
        font-size: 132.13px;
      }
    </style>
  </defs>
  <g id="Camada_1-2" data-name="Camada 1">
    <path class="cls-1" d="M291.57,4.62l287.57,166.03v332.06l-287.57,166.03L4,502.7V170.65L291.57,4.62M291.57,0L0,168.34v336.68l291.57,168.34,291.57-168.34V168.34L291.57,0h0Z"/>
    <g>
      <polygon class="cls-1" points="166.04 463 417.1 463 291.57 627.63 166.04 463"/>
      <path class="cls-1" d="M413.06,465l-121.49,159.33-121.49-159.33h242.98M421.14,461h0,0ZM421.14,461H162l129.57,169.93,129.57-169.93h0Z"/>
    </g>
    <g>
      <polygon class="cls-1" points="30.54 233.71 93.94 421.23 36.21 463.6 30.54 233.71"/>
      <path class="cls-1" d="M32.87,246.83l58.71,173.65-53.45,39.24-5.25-212.89M28.22,220.59l6.09,246.89,61.99-45.51L28.22,220.59h0Z"/>
    </g>
    <g>
      <polygon class="cls-1" points="488.42 405.96 551.82 218.44 546.14 448.33 488.42 405.96"/>
      <path class="cls-1" d="M549.49,231.56l-5.25,212.89-53.45-39.24,58.71-173.65M554.14,205.32l-68.08,201.38,61.99,45.51,6.09-246.89h0Z"/>
    </g>
    <g>
      <polygon class="cls-1" points="340.47 177.88 302.52 39.08 530.62 180.29 340.47 177.88"/>
      <path class="cls-1" d="M305.79,43.45l217.65,134.75-181.44-2.29-36.21-132.45M299.25,34.7l39.68,145.17,198.86,2.51L299.25,34.7h0Z"/>
    </g>
    <g>
      <polygon class="cls-1" points="280.53 38.66 244.07 181.46 38.53 186.53 280.53 38.66"/>
      <path class="cls-1" d="M277.38,42.93l-34.87,136.57-196.56,4.85L277.38,42.93M283.69,34.39h0,0ZM283.69,34.39L31.13,188.71l214.51-5.29,38.05-149.03h0Z"/>
    </g>
    <text class="cls-2" transform="translate(103.16 313.66) scale(1.05 1)"><tspan class="cls-3" x="0" y="0">T</tspan><tspan x="85.74" y="0">a na</tspan><tspan x="10.94" y="93.02">mesa</tspan></text>
    <g>
      <polygon class="cls-1" points="68.76 500.78 121.98 468.96 201.02 570.6 68.76 500.78"/>
      <path class="cls-1" d="M121.49,471.59l72.25,92.91-120.9-63.82,48.65-29.09M122.47,466.34l-57.79,34.55,143.62,75.82-85.83-110.37h0Z"/>
    </g>
    <g>
      <polygon class="cls-1" points="465.84 463.36 519.06 495.19 386.8 565.01 465.84 463.36"/>
      <path class="cls-1" d="M466.33,465.99l48.65,29.09-120.9,63.82,72.25-92.91M465.35,460.74l-85.83,110.37,143.62-75.82-57.79-34.55h0Z"/>
    </g>
  </g>
</svg>