<svg width="99" height="99" viewBox="0 0 99 99" fill="none" xmlns="http://www.w3.org/2000/svg">
<circle cx="49.5" cy="49.5" r="49.5" fill="#CD004A"/>
<path d="M53.4629 21.1582C53.4629 19.2252 51.8959 17.6582 49.9629 17.6582C48.0299 17.6582 46.4629 19.2252 46.4629 21.1582L53.4629 21.1582ZM47.488 74.1684C48.8549 75.5352 51.0709 75.5352 52.4378 74.1684L74.7116 51.8945C76.0785 50.5277 76.0785 48.3116 74.7116 46.9448C73.3448 45.578 71.1287 45.578 69.7619 46.9448L49.9629 66.7438L30.1639 46.9448C28.7971 45.578 26.581 45.578 25.2142 46.9448C23.8473 48.3116 23.8473 50.5277 25.2142 51.8945L47.488 74.1684ZM49.9629 21.1582L46.4629 21.1582L46.4629 71.6935L49.9629 71.6935L53.4629 71.6935L53.4629 21.1582L49.9629 21.1582Z" fill="#252525"/>
</svg>
